<?xml version="1.0" encoding="us-ascii" standalone="no"?><svg xmlns="http://www.w3.org/2000/svg" xmlns:xlink="http://www.w3.org/1999/xlink" contentStyleType="text/css" height="657px" preserveAspectRatio="none" style="width:290px;height:657px;background:#FFFFFF;" version="1.1" viewBox="0 0 290 657" width="290px" zoomAndPan="magnify"><defs/><g><!--entity Customer--><g id="elem_Customer"><ellipse cx="36.5" cy="405.5" fill="#F1F1F1" rx="8" ry="8" style="stroke:#181818;stroke-width:0.5;"/><path d="M36.5,413.5 L36.5,440.5 M23.5,421.5 L49.5,421.5 M36.5,440.5 L23.5,455.5 M36.5,440.5 L49.5,455.5 " fill="none" style="stroke:#181818;stroke-width:0.5;"/><text fill="#000000" font-family="sans-serif" font-size="14" lengthAdjust="spacing" textLength="61" x="6" y="471.5332">Customer</text></g><!--entity Admin--><g id="elem_Admin"><ellipse cx="36.5" cy="63.5" fill="#F1F1F1" rx="8" ry="8" style="stroke:#181818;stroke-width:0.5;"/><path d="M36.5,71.5 L36.5,98.5 M23.5,79.5 L49.5,79.5 M36.5,98.5 L23.5,113.5 M36.5,98.5 L49.5,113.5 " fill="none" style="stroke:#181818;stroke-width:0.5;"/><text fill="#000000" font-family="sans-serif" font-size="14" lengthAdjust="spacing" textLength="39" x="17" y="129.5332">Admin</text></g><g id="elem_UC_Browse"><ellipse cx="205.355" cy="232.171" fill="#F1F1F1" rx="76.355" ry="17.671" style="stroke:#181818;stroke-width:0.5;"/><text fill="#000000" font-family="sans-serif" font-size="14" lengthAdjust="spacing" textLength="105" x="150.1233" y="236.6255">Browse Watches</text></g><g id="elem_UC_Search"><ellipse cx="205.4763" cy="302.0953" fill="#F1F1F1" rx="75.9763" ry="17.5953" style="stroke:#181818;stroke-width:0.5;"/><text fill="#000000" font-family="sans-serif" font-size="14" lengthAdjust="spacing" textLength="104" x="150.5467" y="306.5957">Search Watches</text></g><g id="elem_UC_AddCart"><ellipse cx="205.6242" cy="370.1042" fill="#F1F1F1" rx="63.1242" ry="15.6042" style="stroke:#181818;stroke-width:0.5;"/><text fill="#000000" font-family="sans-serif" font-size="14" lengthAdjust="spacing" textLength="72" x="166.6242" y="374.6208">Add to Cart</text></g><g id="elem_UC_ViewCart"><ellipse cx="205.258" cy="436.0364" fill="#F1F1F1" rx="54.258" ry="15.5364" style="stroke:#181818;stroke-width:0.5;"/><text fill="#000000" font-family="sans-serif" font-size="14" lengthAdjust="spacing" textLength="60" x="172.258" y="440.553">View Cart</text></g><g id="elem_UC_Checkout"><ellipse cx="205.258" cy="502.0364" fill="#F1F1F1" rx="54.258" ry="15.5364" style="stroke:#181818;stroke-width:0.5;"/><text fill="#000000" font-family="sans-serif" font-size="14" lengthAdjust="spacing" textLength="60" x="172.258" y="506.553">Checkout</text></g><g id="elem_UC_Order"><ellipse cx="205.58" cy="568.1227" fill="#F1F1F1" rx="66.08" ry="15.6227" style="stroke:#181818;stroke-width:0.5;"/><text fill="#000000" font-family="sans-serif" font-size="14" lengthAdjust="spacing" textLength="76" x="164.58" y="572.6393">Place Order</text></g><g id="elem_UC_Review"><ellipse cx="205.6531" cy="634.9306" fill="#F1F1F1" rx="70.1531" ry="16.4306" style="stroke:#181818;stroke-width:0.5;"/><text fill="#000000" font-family="sans-serif" font-size="14" lengthAdjust="spacing" textLength="88" x="158.6531" y="639.4472">Leave Review</text></g><g id="elem_UC_ManageProducts"><ellipse cx="205.6819" cy="24.1364" fill="#F1F1F1" rx="78.6819" ry="18.1364" style="stroke:#181818;stroke-width:0.5;"/><text fill="#000000" font-family="sans-serif" font-size="14" lengthAdjust="spacing" textLength="111" x="148.5947" y="28.3083">Manage Products</text></g><g id="elem_UC_ManageOrders"><ellipse cx="205.6111" cy="94.2222" fill="#F1F1F1" rx="74.1111" ry="17.2222" style="stroke:#181818;stroke-width:0.5;"/><text fill="#000000" font-family="sans-serif" font-size="14" lengthAdjust="spacing" textLength="99" x="153.1111" y="98.7388">Manage Orders</text></g><g id="elem_UC_ManageUsers"><ellipse cx="205.7113" cy="163.1423" fill="#F1F1F1" rx="71.2113" ry="16.6423" style="stroke:#181818;stroke-width:0.5;"/><text fill="#000000" font-family="sans-serif" font-size="14" lengthAdjust="spacing" textLength="91" x="157.2113" y="167.6589">Manage Users</text></g><!--link Customer to UC_Browse--><g id="link_Customer_UC_Browse"><path d="M49.86,396.81 C63.47,359.22 88.64,303.02 127,267 C136.36,258.21 142.8306,253.7946 154.5306,248.5746 " fill="none" id="Customer-to-UC_Browse" style="stroke:#181818;stroke-width:1.0;"/><polygon fill="#181818" points="160.01,246.13,150.1612,246.144,155.4438,248.1672,153.4207,253.4499,160.01,246.13" style="stroke:#181818;stroke-width:1.0;"/></g><!--link Customer to UC_Search--><g id="link_Customer_UC_Search"><path d="M66.62,396.71 C82.76,376.92 104.16,353.65 127,337 C138.09,328.91 145.863,324.4847 158.253,319.0647 " fill="none" id="Customer-to-UC_Search" style="stroke:#181818;stroke-width:1.0;"/><polygon fill="#181818" points="163.75,316.66,153.9013,316.6023,159.1691,318.6639,157.1076,323.9317,163.75,316.66" style="stroke:#181818;stroke-width:1.0;"/></g><!--link Customer to UC_AddCart--><g id="link_Customer_UC_AddCart"><path d="M67.36,424.2 C96.63,412.63 135.5704,397.2464 165.8904,385.2564 " fill="none" id="Customer-to-UC_AddCart" style="stroke:#181818;stroke-width:1.0;"/><polygon fill="#181818" points="171.47,383.05,161.6297,382.6399,166.8204,384.8887,164.5716,390.0794,171.47,383.05" style="stroke:#181818;stroke-width:1.0;"/></g><!--link Customer to UC_ViewCart--><g id="link_Customer_UC_ViewCart"><path d="M67.36,436 C90.53,436 117.26,436 144.94,436 " fill="none" id="Customer-to-UC_ViewCart" style="stroke:#181818;stroke-width:1.0;"/><polygon fill="#181818" points="150.94,436,141.94,432,145.94,436,141.94,440,150.94,436" style="stroke:#181818;stroke-width:1.0;"/></g><!--link Customer to UC_Checkout--><g id="link_Customer_UC_Checkout"><path d="M67.36,447.8 C97.1,459.55 136.9999,475.3248 167.3399,487.3148 " fill="none" id="Customer-to-UC_Checkout" style="stroke:#181818;stroke-width:1.0;"/><polygon fill="#181818" points="172.92,489.52,166.02,482.4922,168.2699,487.6824,163.0798,489.9323,172.92,489.52" style="stroke:#181818;stroke-width:1.0;"/></g><!--link Customer to UC_Order--><g id="link_Customer_UC_Order"><path d="M66.08,475.01 C82.22,494.96 103.79,518.46 127,535 C138.79,543.4 147.48,548.0095 160.54,553.2395 " fill="none" id="Customer-to-UC_Order" style="stroke:#181818;stroke-width:1.0;"/><polygon fill="#181818" points="166.11,555.47,159.2421,548.4109,161.4684,553.6112,156.268,555.8375,166.11,555.47" style="stroke:#181818;stroke-width:1.0;"/></g><!--link Customer to UC_Review--><g id="link_Customer_UC_Review"><path d="M50.28,475.05 C64.05,511.81 89.22,566.25 127,601 C136.84,610.05 143.9523,614.6266 156.1523,619.7766 " fill="none" id="Customer-to-UC_Review" style="stroke:#181818;stroke-width:1.0;"/><polygon fill="#181818" points="161.68,622.11,154.9441,614.9248,157.0736,620.1655,151.8329,622.295,161.68,622.11" style="stroke:#181818;stroke-width:1.0;"/></g><!--link Admin to UC_ManageProducts--><g id="link_Admin_UC_ManageProducts"><path d="M56.01,86.24 C82.68,75.06 126.9466,56.5097 161.4866,42.0297 " fill="none" id="Admin-to-UC_ManageProducts" style="stroke:#181818;stroke-width:1.0;"/><polygon fill="#181818" points="167.02,39.71,157.1734,39.5007,162.4088,41.6431,160.2664,46.8786,167.02,39.71" style="stroke:#181818;stroke-width:1.0;"/></g><!--link Admin to UC_ManageOrders--><g id="link_Admin_UC_ManageOrders"><path d="M56.01,94 C74.35,94 97.65,94 125.39,94 " fill="none" id="Admin-to-UC_ManageOrders" style="stroke:#181818;stroke-width:1.0;"/><polygon fill="#181818" points="131.39,94,122.39,90,126.39,94,122.39,98,131.39,94" style="stroke:#181818;stroke-width:1.0;"/></g><!--link Admin to UC_ManageUsers--><g id="link_Admin_UC_ManageUsers"><path d="M56.01,101.65 C83.36,112.95 129.4946,132.0091 164.0846,146.2991 " fill="none" id="Admin-to-UC_ManageUsers" style="stroke:#181818;stroke-width:1.0;"/><polygon fill="#181818" points="169.63,148.59,162.8392,141.4566,165.0088,146.6809,159.7846,148.8505,169.63,148.59" style="stroke:#181818;stroke-width:1.0;"/></g><!--SRC=[RPB1Ri8m38RlUGgBEwym2Ne53Gq1nybAF1eD6ibnuVNN9aqpN4xH__bJM__DZNu4903xQolWF9CL7pg3LW93qqS9T-8fRjpTTyRqaIn6WjMMmtCuBoYsfRW2Z71glZEjrf6GRQkjJAkrSMxyZWPPYZAWCLRdxEdvOepWLMbQih-XdusIgt6ueINuP4TSf1IgiIDy47pHOtXwKNAgpXuxl18SEBZUohnLneKkzFGY9MUsK4znOIPaJFafi5v__EjRuwbWZKkfcizLwi7Se1xarZITYZBfhXIeQdapcrfuCqbR_m40]--></g></svg>